<svg width="40" height="40" viewBox="0 0 40 40" fill="none" xmlns="http://www.w3.org/2000/svg">
<path fill-rule="evenodd" clip-rule="evenodd" d="M19.1332 1.75715L19.0257 1.74563L18.9178 1.75275C15.4264 1.98294 13.2993 3.07982 11.9484 4.57175C11.5187 5.04639 11.1785 5.5568 10.9032 6.05634C8.60821 5.84065 6.79717 6.50673 5.45897 7.57209C3.92997 8.78935 3.10396 10.4562 2.79462 11.6681C2.10043 14.0081 2.53324 15.9483 3.42073 17.4015C4.07222 18.4683 4.95064 19.2465 5.75002 19.7451V25V25.4385L6.02393 25.7809L7.25002 27.3135V28V36V37.25H8.50002H29H30.25V36V28.4065L32.0109 25.9853L32.25 25.6565V25.25V19.4795C33.0494 18.9809 33.9278 18.2027 34.5793 17.1359C35.4668 15.6827 35.8996 13.7424 35.2054 11.4024C34.8961 10.1905 34.0701 8.52369 32.5411 7.30643C31.1437 6.19393 29.2306 5.51683 26.7893 5.82454C26.1083 4.75286 25.3515 3.93559 24.4509 3.32572C22.9256 2.29291 21.1524 1.9735 19.1332 1.75715ZM28.3635 26.75L29.75 24.8436V17H31.424C31.7866 16.7013 32.1536 16.3113 32.4457 15.8329C32.9798 14.9584 33.2971 13.7414 32.8027 12.0936L32.7944 12.0657L32.7873 12.0375C32.5909 11.2517 32.0178 10.0854 30.984 9.26231C30.2876 8.7079 29.337 8.27096 28.0402 8.25061C28.0782 8.33906 28.1161 8.42861 28.1539 8.51927L25.8462 9.48081C24.8865 7.17752 24.0069 6.0443 23.0492 5.39578C22.0923 4.74788 20.8927 4.46561 18.9755 4.25471C16.039 4.46721 14.6077 5.35955 13.8016 6.24976C13.1033 7.02094 12.79 7.84042 12.4521 8.724L12.4521 8.72401L12.4521 8.72409C12.3576 8.9712 12.2612 9.22332 12.1539 9.48081L9.84617 8.51927L9.84623 8.51914C8.60729 8.56244 7.69196 8.98987 7.01607 9.52796C5.98221 10.351 5.40916 11.5173 5.2127 12.3032L5.20565 12.3314L5.1973 12.3592C4.70296 14.007 5.02023 15.224 5.55431 16.0985C5.93024 16.7141 6.43003 17.1833 6.88495 17.5H8.25002V24.5616L9.97611 26.7192L9.93753 26.75H12.6034L11.7577 19.1381L14.2424 18.862L15.1188 26.75H17.9367L17.7412 19.0317L20.2404 18.9684L20.4375 26.75H22.8812L23.7577 18.862L26.2424 19.1381L25.3966 26.75H28.3635ZM9.75002 34.75V29.25H27.75V34.75H9.75002Z" fill="black"/>
</svg>
