<svg width="40" height="39" viewBox="0 0 40 39" fill="none" xmlns="http://www.w3.org/2000/svg">
<path fill-rule="evenodd" clip-rule="evenodd" d="M25.9712 8.66132C23.9668 7.31361 21.5146 6.93189 19.8877 7.00937L19.858 7.01078H19.8282C16.3023 7.01078 14.2033 8.52545 12.938 10.3753C11.9451 11.8269 11.4453 13.5234 11.2613 14.9344H29.4657C29.1619 11.7312 27.6887 9.81615 25.9712 8.66132ZM10.8746 8.96392C9.38717 11.1385 8.79996 13.6678 8.69394 15.5549L3.37816 19.644C2.23599 20.5226 2.20259 22.2334 3.30959 23.1559L8.32627 27.3365C8.43681 27.4286 8.55524 27.5093 8.67972 27.578L6.11255 31.6121H4.19284V34.1121H6.24979C7.01907 34.1121 7.73502 33.7191 8.14803 33.0701L11.4648 27.858H19.0994V34.4256H21.5994V27.858H30.9321C30.9487 27.858 30.9652 27.8578 30.9818 27.8574L33.011 32.7275C33.3603 33.566 34.1796 34.1121 35.0879 34.1121H37.5483V31.6121H35.2546L33.1894 26.6557L37.3892 23.1559C38.4962 22.2334 38.4628 20.5226 37.3206 19.644L32.0112 15.5598C31.8427 11.1296 29.8801 8.27701 27.3662 6.58668C24.8228 4.8766 21.8199 4.42044 19.7988 4.51081C15.4194 4.51955 12.5761 6.47622 10.8746 8.96392ZM5.14989 21.4352L10.351 17.4344H30.3478L35.5489 21.4352L30.8416 25.358H9.85719L5.14989 21.4352ZM13.0529 22.4385C13.6286 22.4385 14.0952 21.9718 14.0952 21.3962C14.0952 20.8205 13.6286 20.3538 13.0529 20.3538C12.4772 20.3538 12.0105 20.8205 12.0105 21.3962C12.0105 21.9718 12.4772 22.4385 13.0529 22.4385ZM21.3918 21.3962C21.3918 21.9718 20.9251 22.4385 20.3494 22.4385C19.7737 22.4385 19.307 21.9718 19.307 21.3962C19.307 20.8205 19.7737 20.3538 20.3494 20.3538C20.9251 20.3538 21.3918 20.8205 21.3918 21.3962ZM27.6459 22.4385C28.2216 22.4385 28.6883 21.9718 28.6883 21.3962C28.6883 20.8205 28.2216 20.3538 27.6459 20.3538C27.0702 20.3538 26.6035 20.8205 26.6035 21.3962C26.6035 21.9718 27.0702 22.4385 27.6459 22.4385Z" fill="black"/>
</svg>
