<svg width="40" height="40" viewBox="0 0 40 40" fill="none" xmlns="http://www.w3.org/2000/svg">
<path fill-rule="evenodd" clip-rule="evenodd" d="M29.5 14.5C29.5 20.0228 25.0228 24.5 19.5 24.5C13.9772 24.5 9.5 20.0228 9.5 14.5C9.5 8.97715 13.9772 4.5 19.5 4.5C25.0228 4.5 29.5 8.97715 29.5 14.5ZM32 14.5C32 21.4036 26.4036 27 19.5 27C12.5964 27 7 21.4036 7 14.5C7 7.59644 12.5964 2 19.5 2C26.4036 2 32 7.59644 32 14.5ZM20 17C20.5523 17 21 16.5523 21 16C21 15.4477 20.5523 15 20 15C19.4477 15 19 15.4477 19 16C19 16.5523 19.4477 17 20 17ZM24 18C24 18.5523 23.5523 19 23 19C22.4477 19 22 18.5523 22 18C22 17.4477 22.4477 17 23 17C23.5523 17 24 17.4477 24 18ZM20 21C20.5523 21 21 20.5523 21 20C21 19.4477 20.5523 19 20 19C19.4477 19 19 19.4477 19 20C19 20.5523 19.4477 21 20 21ZM18 18C18 18.5523 17.5523 19 17 19C16.4477 19 16 18.5523 16 18C16 17.4477 16.4477 17 17 17C17.5523 17 18 17.4477 18 18ZM15.475 32C16.8419 32 17.95 33.1081 17.95 34.475V35L17.95 37.45C17.95 37.5854 17.9674 37.7168 18 37.842V39H19.5H21V37.842C21.0326 37.7168 21.05 37.5854 21.05 37.45L21.05 35V34.725C21.05 33.22 22.27 32 23.775 32H25H27V29H25H19.75H14.5H13V30.5V32H14.5H15.475Z" fill="black"/>
</svg>
