<svg width="40" height="37" viewBox="0 0 40 37" fill="none" xmlns="http://www.w3.org/2000/svg">
<g clip-path="url(#clip0_1_525)">
<path d="M5.92017 36.3948H34.1372" stroke="black" stroke-width="2.5" stroke-miterlimit="10"/>
<path d="M25.449 22.2389V36.8421" stroke="black" stroke-width="2.5" stroke-miterlimit="10"/>
<path d="M14.6138 36.8421V22.2389L15.6189 20.7496H24.8913L25.4491 22.2389H34.1373" stroke="black" stroke-width="2.5" stroke-miterlimit="10"/>
<path d="M5.92017 22.5073H15.061" stroke="black" stroke-width="2.5" stroke-miterlimit="10"/>
<path d="M6.28345 29.538H14.6138" stroke="black" stroke-width="2.5" stroke-miterlimit="10"/>
<path d="M25.449 29.538H34.132" stroke="black" stroke-width="2.5" stroke-miterlimit="10"/>
<path d="M36.1106 3.75208V16.003" stroke="black" stroke-width="2.5" stroke-miterlimit="10"/>
<path d="M0.368408 19.713L19.6499 0.731445L39.2681 19.2709" stroke="black" stroke-width="2.5" stroke-miterlimit="10"/>
<path d="M10.4458 9.79333L29.3168 9.86701" stroke="black" stroke-width="2.5" stroke-miterlimit="10"/>
<path d="M35.9376 16L5.06301 16.2473L4 16.2579" stroke="black" stroke-width="2.5" stroke-miterlimit="10"/>
<path d="M6.49998 22.5001C6.49998 22.5001 1.99998 22.5001 4.44548 15.8079" stroke="black" stroke-width="2.5" stroke-miterlimit="10"/>
<path d="M33.0001 22.5C33.0001 22.5 39.0001 22 35.0546 16" stroke="black" stroke-width="2.5" stroke-miterlimit="10"/>
<path d="M33.0001 29.5C33.0001 29.5 37.6863 26.5 33.5001 22" stroke="black" stroke-width="2.5" stroke-miterlimit="10"/>
<path d="M7.2392 29.5C7.2392 29.5 2.55298 26.5 6.7392 22" stroke="black" stroke-width="2.5" stroke-miterlimit="10"/>
<path d="M7.2392 36.5C7.2392 36.5 2.55298 33.5 6.7392 29" stroke="black" stroke-width="2.5" stroke-miterlimit="10"/>
<path d="M33.0001 36.5C33.0001 36.5 37.6863 33.5 33.5001 29" stroke="black" stroke-width="2.5" stroke-miterlimit="10"/>
</g>
<defs>
<clipPath id="clip0_1_525">
<rect width="39.6259" height="37" fill="white"/>
</clipPath>
</defs>
</svg>
