<svg width="40" height="40" viewBox="0 0 40 40" fill="none" xmlns="http://www.w3.org/2000/svg">
<g clip-path="url(#clip0_1_146)">
<path d="M4 23.3938V32.9149C4 32.9149 4 37.8287 9.34458 37.8287H31.2362C31.2362 37.8287 36.7861 38.4302 36.7861 33.4261V23.3938" stroke="black" stroke-width="2.5" stroke-miterlimit="10"/>
<path d="M4 29.8414C4.44689 30.7736 5.12327 31.8081 6.05329 31.8923C7.71403 32.0367 8.40853 28.9632 10.3712 28.8189C12.3339 28.6745 13.1613 31.9404 15.3052 31.8923C17.449 31.8442 17.8657 28.6324 20.0337 28.5121C22.3165 28.3858 23.1318 31.8803 25.4689 31.7901C27.806 31.6998 28.5972 28.3979 30.4028 28.7166C31.7737 28.9632 31.8824 30.9841 33.4888 31.3811C34.6966 31.6818 35.9769 30.8277 36.7741 30.1782" stroke="black" stroke-width="2.5" stroke-miterlimit="10"/>
<path d="M4 24.1576C4.44689 25.0838 5.12327 26.1243 6.05329 26.2086C7.71403 26.3469 8.40853 23.2734 10.3712 23.1351C12.3339 22.9968 13.1613 26.2567 15.3052 26.2086C17.449 26.1604 17.8657 22.9487 20.0337 22.8284C22.3165 22.6961 23.1318 26.1905 25.4689 26.1003C27.806 26.0101 28.5972 22.7081 30.4028 23.0329C31.7737 23.2795 31.8824 25.2943 33.4888 25.6913C34.6966 25.998 35.9769 25.138 36.7741 24.4884" stroke="black" stroke-width="2.5" stroke-miterlimit="10"/>
<path d="M10.3711 2V23.1352" stroke="black" stroke-width="2.5" stroke-miterlimit="10"/>
<path d="M4 15.5087C4 15.5087 8.52327 15.3042 10.3712 11.2083C10.3712 11.2083 12.5272 16.6214 16.8451 15.5087" stroke="black" stroke-width="2.5" stroke-miterlimit="10"/>
<path d="M4 6.2944C4 6.2944 8.52327 6.0899 10.3712 2C10.3712 2 12.5272 7.41311 16.8451 6.2944" stroke="black" stroke-width="2.5" stroke-miterlimit="10"/>
<path d="M29.6782 15.6651C31.9929 15.6651 33.8693 13.7963 33.8693 11.491C33.8693 9.18571 31.9929 7.31689 29.6782 7.31689C27.3635 7.31689 25.4871 9.18571 25.4871 11.491C25.4871 13.7963 27.3635 15.6651 29.6782 15.6651Z" stroke="black" stroke-width="2.5" stroke-miterlimit="10"/>
</g>
<defs>
<clipPath id="clip0_1_146">
<rect width="40" height="40" fill="white"/>
</clipPath>
</defs>
</svg>
