<svg width="40" height="40" viewBox="0 0 40 40" fill="none" xmlns="http://www.w3.org/2000/svg">
<g clip-path="url(#clip0_1_501)">
<path d="M2.42627 28.9653C2.42627 28.9653 13.5082 26.6117 21.7815 32.9783C30.0547 39.3449 37.235 37.0618 37.235 37.0618" stroke="black" stroke-width="2.5" stroke-miterlimit="10"/>
<path d="M12 29C12 29 17.4958 19.1643 37 21.3048" stroke="black" stroke-width="2.5" stroke-miterlimit="10"/>
<path d="M2.42627 18.8786C2.42627 18.8786 16.4918 16.5901 20.9673 22.5771" stroke="black" stroke-width="2.5" stroke-miterlimit="10"/>
<path d="M19.8306 15.1855L21.7814 13.5966L28.6557 7.98376L37.6557 15.1855" stroke="black" stroke-width="2.5" stroke-miterlimit="10"/>
<path d="M35.2842 21.1779V13.5966" stroke="black" stroke-width="2.5" stroke-miterlimit="10"/>
<path d="M21.7815 8.88391V11.2402V13.5965V22.3167" stroke="black" stroke-width="2.5" stroke-miterlimit="10"/>
<path d="M27.6121 21.1779V16.4327H29.2842V21.1779" stroke="black" stroke-width="2.5" stroke-miterlimit="10"/>
<path d="M8.14746 3V18.4284" stroke="black" stroke-width="2.5" stroke-miterlimit="10"/>
<path d="M14.1476 7.98376C14.1476 7.98376 10.4482 9.02498 8.13672 3.4176" stroke="black" stroke-width="2.5" stroke-miterlimit="10"/>
<path d="M2.14746 13.5206C2.14746 13.5206 5.84691 14.5618 8.15839 8.95447" stroke="black" stroke-width="2.5" stroke-miterlimit="10"/>
<path d="M2.14746 7.56616C2.14746 7.56616 5.84691 8.60738 8.15839 3" stroke="black" stroke-width="2.5" stroke-miterlimit="10"/>
<path d="M14.1476 13.5206C14.1476 13.5206 10.4482 14.5618 8.13672 8.95447" stroke="black" stroke-width="2.5" stroke-miterlimit="10"/>
</g>
<defs>
<clipPath id="clip0_1_501">
<rect width="36" height="35" fill="white" transform="translate(2 3)"/>
</clipPath>
</defs>
</svg>
