<svg width="40" height="40" viewBox="0 0 40 40" fill="none" xmlns="http://www.w3.org/2000/svg">
<circle cx="32.5" cy="21.5" r="1.5" fill="black"/>
<circle cx="27" cy="25" r="10.75" stroke="black" stroke-width="2.5"/>
<circle cx="28.5" cy="19.5" r="1.5" fill="black"/>
<circle cx="28.5" cy="23.5" r="1.5" fill="black"/>
<path d="M16.0548 15.6941C16.0548 15.6941 8.51527 23.5 15.6941 34.4728C15.6941 34.4728 15.9506 35.6513 14.0908 35.5991C12.2309 35.547 8.25874 35.5991 8.25874 35.5991C8.05399 35.5358 7.86778 35.4234 7.71622 35.2719C7.56466 35.1203 7.45233 34.9341 7.38895 34.7294C7.38895 34.7294 4.98398 23.2136 5.44493 18.9688C5.44493 18.9688 5.49704 16.2552 8.56738 14.3112L8.51527 12.7079H14.7241L14.8243 13.8863C14.8243 13.8863 16.4557 15.2852 16.0548 15.6941Z" stroke="black" stroke-width="2.5" stroke-miterlimit="10"/>
<path d="M8 9H15V6.6757C15 6.6757 11.6548 0.709985 8 6.59435V9Z" stroke="black" stroke-width="2.5" stroke-miterlimit="10"/>
</svg>
