<svg width="40" height="40" viewBox="0 0 40 40" fill="none" xmlns="http://www.w3.org/2000/svg">
<path d="M4 10.1774L15.263 14.8023L20.5479 16.9762" stroke="black" stroke-width="2.5" stroke-miterlimit="10"/>
<path d="M30.9013 12.1627C30.9013 12.1627 37.2288 10.5545 33.358 4.98677C33.358 4.98677 26.842 0.644623 26.4649 10.1774C26.4649 10.1774 19.9156 5.18641 15.2629 14.8024" stroke="black" stroke-width="2.5" stroke-miterlimit="10"/>
<path d="M4.47144 26.4369L31.1843 36.8902C31.1843 36.8902 35.9978 37.833 36.1752 34.0564" stroke="black" stroke-width="2.5" stroke-miterlimit="10"/>
<path d="M17.4978 20.653L22.877 25.2835L18.9618 32.0934" stroke="black" stroke-width="2.5" stroke-miterlimit="10"/>
<path d="M35.432 20.6529C35.432 20.6529 34.0289 23.2981 29.2986 19.0502L27.6904 16.1222L24.9176 20.6529C24.9176 20.6529 29.3541 22.3554 29.282 23.9802C29.282 23.9802 31.7941 25.8269 23.1819 33.7792" stroke="black" stroke-width="2.5" stroke-miterlimit="10"/>
</svg>
