<svg width="40" height="40" viewBox="0 0 40 40" fill="none" xmlns="http://www.w3.org/2000/svg">
<g clip-path="url(#clip0_1_75)">
<path fill-rule="evenodd" clip-rule="evenodd" d="M21.5 3.5C21.5 4.05228 21.0523 4.5 20.5 4.5C19.9477 4.5 19.5 4.05228 19.5 3.5C19.5 2.94772 19.9477 2.5 20.5 2.5C21.0523 2.5 21.5 2.94772 21.5 3.5ZM23.6051 5.11664C23.8574 4.63306 24 4.08319 24 3.5C24 1.567 22.433 0 20.5 0C18.567 0 17 1.567 17 3.5C17 4.00947 17.1089 4.49352 17.3046 4.93015C12.7563 5.61855 9.33578 8.03631 6.88629 10.9448C4.36641 13.9368 2.85123 17.466 2.1134 20.25H0.5V22.75H39.5V20.25H37.8555C36.3361 14.6473 33.6858 10.8875 30.6532 8.46951C28.3602 6.64121 25.8897 5.61262 23.6051 5.11664ZM8.79849 12.5552C6.7401 14.9993 5.42273 17.8778 4.71084 20.25H35.2571C33.841 15.4741 31.5529 12.3843 29.0946 10.4242C26.2916 8.18919 23.1817 7.35517 20.6859 7.24887C15.2774 7.01851 11.4434 9.41475 8.79849 12.5552ZM5.25 27.25H5V24.75H22.2394H22.8017L23.1747 25.1707C23.6777 25.7381 24.2097 26.686 24.2479 27.8254L29.4678 25.369L29.7206 25.25H30C31.13 25.25 32.0879 25.4474 32.8376 25.8964C33.6257 26.3684 34.0849 27.0606 34.2752 27.8218C34.6202 29.2019 34.0566 30.6818 33.618 31.559L33.4317 31.9317L33.059 32.118L26.059 35.618L26.0439 35.6256L26.0286 35.6327L18.5286 39.1327L18.0944 39.3354L17.636 39.1959L6.13605 35.6958L5.25 35.4262V34.5V27.25ZM7.75 27.25V33.5738L17.9056 36.6647L24.9561 33.3744L31.5496 30.0776C31.8271 29.4212 31.9456 28.8114 31.8498 28.4282C31.811 28.2727 31.7389 28.1524 31.553 28.0411C31.353 27.9213 30.9665 27.7837 30.2682 27.7553L22.2258 31.5399C21.9685 31.7309 21.6854 31.9142 21.3758 32.0888L21.0899 32.25H20.7617H14.8511V29.75H20.4184C21.5016 29.0673 21.7138 28.4403 21.7451 28.0741C21.7698 27.7852 21.6962 27.4962 21.579 27.25H7.75Z" fill="black"/>
</g>
<defs>
<clipPath id="clip0_1_75">
<rect width="40" height="40" fill="white"/>
</clipPath>
</defs>
</svg>
