<svg width="40" height="40" viewBox="0 0 40 40" fill="none" xmlns="http://www.w3.org/2000/svg">
<path fill-rule="evenodd" clip-rule="evenodd" d="M38.5589 3.618L36.2499 4.77251V33.5C36.2499 35.2949 34.7948 36.75 32.9999 36.75H25.4999H15.4999H8.49992C6.705 36.75 5.24992 35.2949 5.24992 33.5V20.2725L3.55894 21.118L2.44091 18.8819L5.24992 17.4774V8.49997H7.74992V16.2274L34.4409 2.88193L37.4409 1.38193L38.5589 3.618ZM7.74992 33.5V19.0225L33.7499 6.02251V33.5C33.7499 33.9142 33.4141 34.25 32.9999 34.25H26.7499V23.5C26.7499 21.705 25.2948 20.25 23.4999 20.25H17.4999C15.705 20.25 14.2499 21.705 14.2499 23.5V34.25H8.49992C8.08571 34.25 7.74992 33.9142 7.74992 33.5ZM24.2499 23.5V34.25H16.7499V23.5C16.7499 23.0858 17.0857 22.75 17.4999 22.75H23.4999C23.9141 22.75 24.2499 23.0858 24.2499 23.5ZM29.4999 15C30.3283 15 30.9999 14.3284 30.9999 13.5C30.9999 12.6715 30.3283 12 29.4999 12C28.6715 12 27.9999 12.6715 27.9999 13.5C27.9999 14.3284 28.6715 15 29.4999 15Z" fill="black"/>
</svg>
