<svg width="40" height="40" viewBox="0 0 40 40" fill="none" xmlns="http://www.w3.org/2000/svg">
<path d="M21.0001 5.00001C18.3334 3.50001 11.5001 2.10001 5.50008 8.50001C3.50008 11.6667 1.30008 19.4 8.50008 25C10.5001 26.3333 15.8001 28.4 21.0001 26V32H27.0001L31.5001 36.5H36.5001V32L26.0001 21.5L27.0001 19" stroke="black" stroke-width="2.5" stroke-linecap="square"/>
<circle cx="13" cy="13" r="2.75" stroke="black" stroke-width="2.5"/>
<path d="M22 9.5C24.3333 9.66667 28.9 8.6 28.5 3C28.3333 5.33333 29.4 9.9 35 9.5C32.8333 9.33333 28.5 10.3 28.5 15.5C28.8333 13.3333 28 9.1 22 9.5Z" stroke="black" stroke-width="2.5" stroke-linecap="square"/>
</svg>
