<svg width="40" height="40" viewBox="0 0 40 40" fill="none" xmlns="http://www.w3.org/2000/svg">
<path fill-rule="evenodd" clip-rule="evenodd" d="M2.77332 8.75H5.74996H6.99996H16.8132L10.9184 15.75H2.90295L2.77332 8.75ZM2.94925 18.25L3.14612 28.8811C3.34078 28.6974 3.54233 28.5302 3.74926 28.3788C5.10644 27.3856 6.59874 27.1422 7.638 27.2576L7.64651 27.2586L7.655 27.2597C8.85711 27.4099 9.82421 27.8948 10.5887 28.5356L10.2862 18.25H2.94925ZM10.5945 33.25H3.44201C3.86207 31.7326 4.56761 30.8778 5.22566 30.3962C6.03881 29.8012 6.89137 29.6924 7.35398 29.7415C8.47515 29.8846 9.26461 30.545 9.83013 31.4417C10.2001 32.0285 10.4466 32.6792 10.5945 33.25ZM26.7715 33.25L27.2365 17.4402L20 8.84683L12.7634 17.4402L13.2284 33.25H15.75V26.9087V26.6539L15.8496 26.4195C16.1228 25.7772 16.5288 25.0599 17.0627 24.4321C17.5907 23.8112 18.3064 23.2053 19.2127 22.9184C20.1664 22.6165 21.2071 22.7089 22.2347 23.2892C23.2204 23.8459 24.154 24.8257 25.0538 26.2365L25.25 26.5439V26.9087V33.25H26.7715ZM18.25 27.177V33.25H22.75V27.2824C22.0543 26.2563 21.4591 25.7223 21.0052 25.466C20.5512 25.2096 20.2269 25.2196 19.9672 25.3018C19.6602 25.399 19.3142 25.6437 18.9672 26.0517C18.6807 26.3885 18.4357 26.788 18.25 27.177ZM36.5579 33.25H29.4054C29.5533 32.6792 29.7998 32.0285 30.1698 31.4417C30.7353 30.545 31.5248 29.8846 32.6459 29.7415C33.1085 29.6924 33.9611 29.8012 34.7743 30.3962C35.4323 30.8778 36.1378 31.7326 36.5579 33.25ZM37.25 29.2891C36.9373 28.9379 36.6017 28.6357 36.2507 28.3788C34.8935 27.3856 33.4012 27.1422 32.3619 27.2576L32.3534 27.2586L32.3449 27.2597C31.1428 27.4099 30.1757 27.8948 29.4112 28.5356L29.7137 18.25H37.25V29.2891ZM37.25 15.75V8.75H34.25H33H23.1868L29.0815 15.75H37.25ZM21.0815 6.25H31.75V3H34.25V6.25H38.5H39.75V7.5V34.5V35.75H38.5H1.99996H0.772893L0.750173 34.5231L0.250173 7.52314L0.226596 6.25H1.49996H5.74996V3H8.24996V6.25H18.9184H19.5H20.5H21.0815ZM20 18C20.5522 18 21 17.5523 21 17C21 16.4477 20.5522 16 20 16C19.4477 16 19 16.4477 19 17C19 17.5523 19.4477 18 20 18Z" fill="black"/>
</svg>
