<svg width="40" height="40" viewBox="0 0 40 40" fill="none" xmlns="http://www.w3.org/2000/svg">
<path fill-rule="evenodd" clip-rule="evenodd" d="M2.75 2.75H4H14H15.1446L15.2452 3.89013C15.2694 4.16431 15.2896 4.45152 15.3052 4.75H39.1616V7.25H38.25V33.75H39.1529V36.25H12.1186C11.9996 36.983 11.8621 37.6686 11.7168 38.2863L11.49 39.25H10.5H4H2.75V38V21V4V2.75ZM15.3217 7.25H35.75V22.0245C35.4435 22.0243 35.0761 21.9869 34.6719 21.8781C34.0938 21.7225 33.5461 21.7081 33.0194 21.8381C32.5088 21.9641 32.0975 22.2067 31.7683 22.4394C31.5584 22.5877 31.3239 22.777 31.1209 22.9408C31.0367 23.0087 30.958 23.0722 30.8887 23.1267C30.6164 23.3405 30.3483 23.5329 30.04 23.699C29.875 23.7878 29.5117 23.8116 28.5556 23.3152C28.2814 23.1728 28.0359 23.0317 27.771 22.8795L27.7708 22.8794L27.7705 22.8792L27.7704 22.8791C27.5961 22.779 27.4134 22.6741 27.2086 22.5607C26.7524 22.3082 26.2075 22.0278 25.6515 21.8781C24.409 21.5436 23.3984 21.9243 22.5386 22.3294C22.3131 22.4357 22.0944 22.5448 21.8737 22.6549L21.8736 22.6549L21.8736 22.6549C21.2212 22.9803 20.5515 23.3143 19.6361 23.6101C18.8146 23.8755 18.1489 23.6543 17.3288 23.1811C17.1366 23.0702 16.9498 22.9537 16.7471 22.8274L16.747 22.8273L16.6915 22.7927C16.4759 22.6584 16.2373 22.5105 15.9959 22.378C15.5321 22.1232 14.9055 21.8351 14.1837 21.8351C13.2037 21.8351 12.3009 22.261 11.6499 22.6686C11.2978 22.8891 10.9762 23.1316 10.7019 23.364C10.3994 22.8719 10.0501 22.4111 9.64771 21.9928C9.35572 21.6892 9.04013 21.4127 8.70067 21.1656C9.27712 20.8668 9.81161 20.512 10.3053 20.1083C11.9237 18.7851 13.0396 16.9911 13.7986 15.0881C14.8064 12.561 15.2295 9.73072 15.3217 7.25ZM11.6551 25.4078C11.8481 25.965 12.0021 26.5391 12.1235 27.1188C12.2043 27.505 12.2717 27.898 12.3266 28.2956C12.8711 28.0369 13.5091 27.8351 14.1837 27.8351C14.9055 27.8351 15.5321 28.1232 15.9959 28.378C16.2373 28.5105 16.4759 28.6584 16.6915 28.7927L16.747 28.8273L16.7471 28.8274C16.9498 28.9537 17.1366 29.0702 17.3288 29.1811C18.1489 29.6543 18.8146 29.8755 19.6361 29.6101C20.5515 29.3143 21.2212 28.9803 21.8736 28.6549L21.8736 28.6549L21.8737 28.6549C22.0944 28.5448 22.3131 28.4357 22.5386 28.3294C23.3984 27.9243 24.409 27.5436 25.6515 27.8781C26.2075 28.0278 26.7524 28.3082 27.2086 28.5607C27.4135 28.6741 27.5962 28.7791 27.7705 28.8792L27.7708 28.8794L27.771 28.8795C28.0359 29.0317 28.2814 29.1728 28.5556 29.3152C29.5117 29.8116 29.875 29.7878 30.04 29.699C30.3483 29.5329 30.6164 29.3405 30.8887 29.1267C30.958 29.0722 31.0367 29.0087 31.1209 28.9408C31.3239 28.777 31.5584 28.5877 31.7683 28.4394C32.0975 28.2067 32.5088 27.9641 33.0194 27.8381C33.5461 27.7081 34.0938 27.7225 34.6719 27.8781C35.0761 27.9869 35.4435 28.0243 35.75 28.0245V24.5244C35.2322 24.5242 34.6455 24.46 34.022 24.2921C33.8042 24.2335 33.6886 24.2479 33.6184 24.2652C33.532 24.2866 33.4127 24.3386 33.2113 24.4809C33.0654 24.584 32.9387 24.6866 32.7764 24.8179L32.7763 24.818C32.6787 24.8971 32.5681 24.9865 32.4327 25.0928C32.1081 25.3478 31.7129 25.6375 31.2253 25.9001C29.7985 26.6685 28.3046 26.0018 27.4035 25.5339C27.0951 25.3737 26.7531 25.1779 26.4474 25.0028C26.2836 24.909 26.1302 24.8212 25.998 24.748C25.5588 24.5049 25.2415 24.3568 25.0015 24.2922C24.6522 24.1981 24.3363 24.246 23.6042 24.5909C23.4504 24.6634 23.2785 24.7494 23.0887 24.8442C22.4159 25.1805 21.5186 25.6291 20.4047 25.989C18.5732 26.5808 17.1164 25.9448 16.0794 25.3465C15.848 25.213 15.6252 25.074 15.4282 24.9511L15.3694 24.9145C15.1497 24.7776 14.9655 24.6643 14.7924 24.5692C14.4271 24.3685 14.2577 24.3351 14.1837 24.3351C13.8901 24.3351 13.4664 24.4808 12.9766 24.7875C12.5081 25.0809 12.1141 25.4368 11.916 25.6501L11.6551 25.4078ZM12.4248 33.75C12.496 32.8884 12.5334 31.9982 12.5244 31.1042C12.663 30.9968 12.8154 30.8884 12.9766 30.7875C13.4664 30.4808 13.8901 30.3351 14.1837 30.3351C14.2577 30.3351 14.4271 30.3685 14.7924 30.5692C14.9655 30.6643 15.1497 30.7776 15.3694 30.9145L15.4282 30.9511C15.6252 31.074 15.848 31.213 16.0794 31.3465C17.1164 31.9448 18.5732 32.5808 20.4047 31.989C21.5186 31.6291 22.4159 31.1805 23.0887 30.8442C23.2785 30.7494 23.4504 30.6634 23.6042 30.5909C24.3363 30.246 24.6522 30.1981 25.0015 30.2922C25.2415 30.3568 25.5588 30.5049 25.998 30.748C26.1302 30.8212 26.2836 30.909 26.4474 31.0028C26.7531 31.1779 27.0951 31.3737 27.4035 31.5339C28.3046 32.0018 29.7985 32.6685 31.2253 31.9001C31.7129 31.6375 32.1081 31.3478 32.4327 31.0928C32.5681 30.9865 32.6787 30.8971 32.7763 30.818L32.7764 30.8179C32.9387 30.6866 33.0654 30.584 33.2113 30.4809C33.4127 30.3386 33.532 30.2866 33.6184 30.2652C33.6886 30.2479 33.8042 30.2335 34.022 30.2921C34.6455 30.46 35.2322 30.5242 35.75 30.5244V33.75H12.4248ZM5.25 19.6655C6.66792 19.4662 7.80166 18.9261 8.72285 18.1729C9.92003 17.1941 10.8229 15.8006 11.4764 14.1619C12.6188 11.2977 12.9216 7.87809 12.8251 5.25H5.25V19.6655ZM5.25 22.3586C6.37523 22.5674 7.20871 23.0635 7.84604 23.726C8.73311 24.6481 9.33338 25.9925 9.67654 27.6312C10.2892 30.5567 10.0118 34.0788 9.49014 36.75H5.25V22.3586ZM29.2 15C29.2 15.6627 28.6627 16.2 28 16.2C27.3373 16.2 26.8 15.6627 26.8 15C26.8 14.3373 27.3373 13.8 28 13.8C28.6627 13.8 29.2 14.3373 29.2 15ZM32 15C32 17.2091 30.2091 19 28 19C25.7909 19 24 17.2091 24 15C24 12.7909 25.7909 11 28 11C30.2091 11 32 12.7909 32 15Z" fill="black"/>
</svg>
