<svg width="40" height="40" viewBox="0 0 40 40" fill="none" xmlns="http://www.w3.org/2000/svg">
<g clip-path="url(#clip0_1_465)">
<path d="M28.8523 27.3185L20.7851 23.4229C20.4959 23.2803 20.1778 23.2061 19.8554 23.2061C19.533 23.2061 19.2149 23.2803 18.9257 23.4229L11.1605 27.3056C10.811 27.4821 10.5175 27.7523 10.3126 28.086C10.1077 28.4196 9.99947 28.8036 10 29.1951V32.4565C10.0006 32.8321 10.1012 33.2007 10.2915 33.5244C10.4818 33.8482 10.755 34.1154 11.0828 34.2986L18.8179 38.6126C19.1309 38.7856 19.4827 38.8763 19.8403 38.8763C20.1979 38.8763 20.5497 38.7856 20.8627 38.6126L28.9558 34.1476C29.2862 33.9655 29.5617 33.6982 29.7537 33.3735C29.9457 33.0487 30.047 32.6784 30.0473 32.3012V29.2167C30.0467 28.8199 29.9343 28.4314 29.7229 28.0956C29.5116 27.7599 29.2098 27.4905 28.8523 27.3185Z" stroke="black" stroke-width="2.5" stroke-miterlimit="10"/>
<path fill-rule="evenodd" clip-rule="evenodd" d="M21.2081 1.9735L20.1049 1.34313L19.4926 2.45641L17.3368 6.37616L16.6589 6.08564L15.6743 5.66366L15.1065 6.57208L13.8783 8.53715L13.8469 8.58751L13.8203 8.64063L13.0834 10.1144L13.0601 10.1609L13.0408 10.2092L12.5496 11.4374L12.4994 11.5628L12.4772 11.6961L12.4649 11.769C12.3334 12.5507 11.9705 14.7068 12.6505 16.7959C13.0128 17.9088 13.6764 19.026 14.8247 19.901C15.9622 20.7677 17.4883 21.3308 19.4719 21.4964C21.2362 21.7259 23.8626 21.3806 25.8616 19.7473C27.9829 18.014 29.1303 15.0589 28.1972 10.6597C28.0532 9.98091 27.6997 9.21029 27.2729 8.46303C26.8343 7.69501 26.2706 6.86999 25.6381 6.06768C24.3923 4.48742 22.7829 2.87338 21.2081 1.9735ZM18.9812 8.57387L21.0173 4.87179C21.9137 5.59083 22.8503 6.56951 23.6749 7.61545C24.243 8.33606 24.734 9.05854 25.1021 9.70291C25.482 10.368 25.6871 10.8747 25.7516 11.1785C26.513 14.768 25.5783 16.6787 24.3964 17.7128C24.7416 15.826 23.7123 13.5957 21.2421 11.0339L20.429 10.1908L19.5348 10.9474C18.3936 11.913 16.8775 13.6033 16.3713 15.4966C16.1671 16.2603 16.1183 17.0973 16.3605 17.9281C16.3536 17.9229 16.3468 17.9177 16.34 17.9125C15.663 17.3967 15.2611 16.7392 15.0277 16.0221C14.5656 14.6024 14.7882 13.0491 14.9211 12.24L15.3427 11.186L16.0298 9.81178L16.6587 8.80549L17.3935 9.12041L18.4351 9.56679L18.9812 8.57387ZM21.8854 17.4618C21.6977 18.0136 21.0646 18.4695 20.2438 18.6944C19.4342 18.2796 19.0515 17.8516 18.8728 17.507C18.6761 17.1276 18.6414 16.685 18.7865 16.1423C19.0071 15.3173 19.6015 14.436 20.2794 13.6951C22.04 15.7903 22.0574 16.9563 21.8854 17.4618Z" fill="black"/>
<g filter="url(#filter0_d_1_465)">
<path d="M24 30L19.7333 32L16 30" stroke="black" stroke-width="2.5" stroke-linecap="round"/>
</g>
</g>
<defs>
<filter id="filter0_d_1_465" x="10.7498" y="28.7498" width="18.5005" height="12.6483" filterUnits="userSpaceOnUse" color-interpolation-filters="sRGB">
<feFlood flood-opacity="0" result="BackgroundImageFix"/>
<feColorMatrix in="SourceAlpha" type="matrix" values="0 0 0 0 0 0 0 0 0 0 0 0 0 0 0 0 0 0 127 0" result="hardAlpha"/>
<feOffset dy="4"/>
<feGaussianBlur stdDeviation="2"/>
<feComposite in2="hardAlpha" operator="out"/>
<feColorMatrix type="matrix" values="0 0 0 0 0 0 0 0 0 0 0 0 0 0 0 0 0 0 0.25 0"/>
<feBlend mode="normal" in2="BackgroundImageFix" result="effect1_dropShadow_1_465"/>
<feBlend mode="normal" in="SourceGraphic" in2="effect1_dropShadow_1_465" result="shape"/>
</filter>
<clipPath id="clip0_1_465">
<rect width="40" height="40" fill="white"/>
</clipPath>
</defs>
</svg>
