<svg width="40" height="40" viewBox="0 0 40 40" fill="none" xmlns="http://www.w3.org/2000/svg">
<path fill-rule="evenodd" clip-rule="evenodd" d="M20.6027 6.64186L16.3246 15.6258C16.0445 16.214 15.5231 16.652 14.8954 16.8264L7.21285 18.9604C7.12019 20.2656 6.85646 21.9344 6.49823 23.75H10.5V26.25H5.96877C5.24955 29.4532 4.35948 32.7978 3.66348 35.25H12.2448C12.3051 33.577 12.6277 31.5078 13.4426 29.6482C14.5049 27.2242 16.4969 24.997 19.911 24.7531L19.9554 24.75H20C21.5029 24.75 23.5785 25.4127 25.2142 27.2751C26.6973 28.9636 27.7309 31.5335 27.7733 35.25H36.25V25.2865L35.5065 23.75H30.5V21.25H34.2969L32.3614 17.25H24V14.75H31.1517L29.0727 10.4534L20.6027 6.64186ZM25.2733 35.25C25.2321 32.0066 24.3346 30.0619 23.3359 28.9248C22.224 27.6589 20.8769 27.2633 20.0426 27.2503C17.8842 27.4222 16.5559 28.7725 15.7324 30.6517C15.0837 32.132 14.8061 33.8406 14.7466 35.25H25.2733ZM18.4507 5.34613C18.9768 4.24127 20.2895 3.75948 21.4055 4.26166L30.1815 8.21089C30.6633 8.42769 31.0534 8.80712 31.2836 9.2827L38.5254 24.2492C38.6732 24.5547 38.75 24.8897 38.75 25.2292V35.5C38.75 36.7426 37.7427 37.75 36.5 37.75H3.3393C1.83643 37.75 0.760478 36.3102 1.1715 34.8727C2.49166 30.2554 4.48232 22.5044 4.72622 18.6781C4.78611 17.7385 5.41492 16.8652 6.39783 16.5921L14.1164 14.4481L18.4507 5.34613Z" fill="black"/>
</svg>
