<svg width="40" height="40" viewBox="0 0 40 40" fill="none" xmlns="http://www.w3.org/2000/svg">
<path fill-rule="evenodd" clip-rule="evenodd" d="M21.1202 1.91466L20.017 1.2843L19.4047 2.39757L14.4508 11.4047L11.9924 10.351L11.0077 9.92905L10.44 10.8375L7.93999 14.8375L7.90851 14.8878L7.88195 14.941L6.38195 17.941L6.3587 17.9875L6.33939 18.0357L5.33939 20.5357L5.2892 20.6612L5.26699 20.7945L5.24594 20.9202C4.98116 22.499 4.29026 26.6184 5.57387 30.5619C6.24454 32.6223 7.4598 34.6584 9.55332 36.2536C11.6362 37.8407 14.501 38.925 18.3661 39.2432C21.6991 39.6847 26.6784 39.0217 30.4159 35.9679C34.2754 32.8144 36.5462 27.3368 34.7228 18.7406C34.4709 17.5531 33.8282 16.1211 32.9837 14.6425C32.1274 13.1432 31.0176 11.5169 29.7634 9.92608C27.2743 6.76876 24.1194 3.62851 21.1202 1.91466ZM16.0953 13.6024L20.9561 4.76451C23.265 6.35231 25.7275 8.8448 27.8002 11.4739C28.9899 12.983 30.0271 14.5067 30.8128 15.8824C31.6104 17.2788 32.1048 18.4469 32.2772 19.2593C33.9537 27.1631 31.8079 31.6022 28.8341 34.032C27.7241 34.9389 26.4629 35.5962 25.171 36.0482C25.8437 35.3643 26.3947 34.5356 26.7334 33.5401C27.8673 30.2072 26.3635 25.7984 20.8998 20.1323L20.0867 19.2891L19.1926 20.0457C16.9491 21.9441 14.0976 25.1732 13.1674 28.6521C12.6911 30.4333 12.703 32.3488 13.6403 34.1566C14.0154 34.8802 14.5244 35.5586 15.1732 36.1875C13.4365 35.7259 12.0997 35.0509 11.0685 34.2651C9.44641 33.0291 8.49293 31.4527 7.9511 29.7881C6.87643 26.4865 7.44466 22.9355 7.71073 21.3388L8.64127 19.0125L10.0915 16.1121L11.9922 13.0709L14.5076 14.1489L15.5492 14.5953L16.0953 13.6024ZM24.3666 32.7349C23.7359 34.5886 21.7108 35.7436 19.6511 36.1957C17.5492 35.2083 16.4191 34.0849 15.8597 33.0059C15.2761 31.8803 15.2255 30.6333 15.5826 29.2978C16.2169 26.9254 18.0842 24.5037 19.9253 22.7477C24.4956 27.7678 24.9809 30.9294 24.3666 32.7349Z" fill="black"/>
</svg>
