<svg width="40" height="40" viewBox="0 0 40 40" fill="none" xmlns="http://www.w3.org/2000/svg">
<path fill-rule="evenodd" clip-rule="evenodd" d="M12.694 4.18614C16.306 1.71023 20.9226 -0.0155863 26.0336 1.09146C31.2394 2.21905 34.165 5.95008 35.6932 9.94759C37.2103 13.9161 37.418 18.2845 37.1514 21.1171L37.0125 22.5936L35.5809 22.2068L22.3541 18.6329L17.2051 37.3319L14.7949 36.6682L19.9407 17.9808L5.67394 14.1259L4.05557 13.6886L4.9365 12.2624C6.36416 9.95084 9.08918 6.65706 12.694 4.18614ZM34.7452 19.3913L30.496 18.2432C31.3551 12.5554 29.9276 7.56711 28.5879 4.73699C30.8901 6.11528 32.3981 8.32924 33.358 10.8403C34.4646 13.7348 34.7956 16.9275 34.7452 19.3913ZM26.043 5.23667C27.2229 7.44387 28.8091 12.1358 28.0645 17.5862L23.0178 16.2226L26.043 5.23667ZM26.8831 3.92971L26.3022 4.29528L26.4436 3.78185C26.5926 3.8283 26.739 3.87762 26.8831 3.92971ZM20.0756 3.5573C17.926 4.02865 15.9167 5.00803 14.1074 6.24821C11.5198 8.02188 9.41761 10.2811 8.02035 12.1703L12.736 13.4445C14.5309 8.8946 17.5114 5.61042 20.0756 3.5573ZM15.1667 14.1012L20.6044 15.5705L23.7839 4.02376C21.4412 5.37286 17.3765 8.72037 15.1667 14.1012ZM10.5 32C10.5 33.3807 9.38071 34.5 8 34.5C6.61929 34.5 5.5 33.3807 5.5 32C5.5 30.6193 6.61929 29.5 8 29.5C9.38071 29.5 10.5 30.6193 10.5 32ZM13 32C13 34.7614 10.7614 37 8 37C5.23858 37 3 34.7614 3 32C3 29.2386 5.23858 27 8 27C10.7614 27 13 29.2386 13 32Z" fill="black"/>
</svg>
