<svg width="40" height="40" viewBox="0 0 40 40" fill="none" xmlns="http://www.w3.org/2000/svg">
<path d="M21.2117 20.2786C20.2768 22.1646 19.5048 24.1272 18.9042 26.1448C17.8275 29.7872 17.3079 33.5716 17.3628 37.3694" stroke="black" stroke-width="2.5" stroke-miterlimit="10"/>
<path d="M30.2967 35.9414C26.2966 37.9123 21.7553 38.4991 17.3856 37.6097C15.5599 37.2867 13.7843 36.7259 12.1042 35.9414C12.3763 35.2886 12.7616 34.3049 13.1469 33.0899C14.0536 30.2067 13.8043 29.6627 14.4117 27.6771C14.9013 26.0949 15.9803 22.577 19.0177 20.9903C19.7055 20.6353 20.4466 20.3949 21.2118 20.2786" stroke="black" stroke-width="2.5" stroke-miterlimit="10"/>
<path d="M21.2117 20.2786C22.1399 22.166 22.9073 24.1283 23.5056 26.1448C24.5822 29.7872 25.1019 33.5716 25.0469 37.3694" stroke="black" stroke-width="2.5" stroke-miterlimit="10"/>
<path d="M12.1042 35.9414C16.1044 37.912 20.6456 38.4988 25.0153 37.6097C26.8349 37.2852 28.6043 36.7244 30.2786 35.9414C30.0066 35.2886 29.6213 34.3049 29.2359 33.0899C28.3292 30.2067 28.5831 29.6627 27.9711 27.6771C27.5178 26.0949 26.4207 22.577 23.3833 20.9903C22.7024 20.6379 21.9692 20.3976 21.2118 20.2786" stroke="black" stroke-width="2.5" stroke-miterlimit="10"/>
<path d="M21.5464 19.5466C22.651 19.5466 23.5464 18.6512 23.5464 17.5466C23.5464 16.4421 22.651 15.5466 21.5464 15.5466C20.4418 15.5466 19.5464 16.4421 19.5464 17.5466C19.5464 18.6512 20.4418 19.5466 21.5464 19.5466Z" stroke="black" stroke-width="2.5" stroke-miterlimit="10"/>
<path d="M14.2803 8.9541L16.7147 14.571" stroke="black" stroke-width="2.5" stroke-miterlimit="10"/>
<path d="M21.5588 7.54663L21.5462 12.571" stroke="black" stroke-width="2.5" stroke-miterlimit="10"/>
<path d="M28.864 8.9541L26.552 14.571" stroke="black" stroke-width="2.5" stroke-miterlimit="10"/>
<path d="M10.0007 10.5725C10.0007 10.5725 2.53423 7.79358 11.1567 6.34743C11.1567 6.34743 11.5239 -1.58147 21.2118 3.97647C21.2118 3.97647 29.3265 -1.08279 28.5785 5.59489C28.5785 5.59489 39.4269 5.26848 33.1119 10.0739" stroke="black" stroke-width="2.5" stroke-miterlimit="10"/>
</svg>
