<svg width="40" height="40" viewBox="0 0 40 40" fill="none" xmlns="http://www.w3.org/2000/svg">
<circle cx="20.5" cy="5.5" r="3.5" stroke="black" stroke-width="2"/>
<path d="M16.9999 16L15.9999 20L19.2499 21.25L22.4999 22.5C23.1609 23.2932 23.8428 24.7154 22.4999 25.2698M12.9999 23C12.4999 22.6667 11.6999 21.4 12.4999 19C13.2999 16.6 14.1666 14 14.4999 13C14.4999 12.6667 15.0999 12 17.4999 12C19.8999 12 22.6667 12 23.5 12C24.1667 12 25.7 12.3 26.5 13.5C27.3 14.7 27.6666 19.3333 27.9999 21.5C27.9999 21.9366 27.7528 22.602 26.9998 23.1365M12.9999 23L18.2199 24.6312M12.9999 23C12.3365 23.1327 11.2716 23.8146 11.2686 25.5M23.4999 24C25.2137 24 26.3156 23.6223 26.9998 23.1365M23.4999 17.5L24.4999 20.5L21.9999 22M18.2199 24.6312L20.9999 25.5C21.6618 25.5 22.1497 25.4144 22.4999 25.2698M18.2199 24.6312L14.9998 26L15.9999 35C14.8 37.8 13.4999 36.5 12.9998 35.5L11.4999 27C11.3368 26.4291 11.2679 25.9316 11.2686 25.5M22.4999 25.2698L24.9998 26.5L23.9998 35C24.1665 36.1667 24.9998 37.9 26.9998 35.5L28.4998 27C28.6665 26.591 28.5998 25.2458 26.9998 23.1365M31.9998 7C32.8332 7.66667 33.9998 9.9 31.9998 13.5C29.9998 17.1 31.8332 19 32.9998 19.5M37.9998 20C36.8332 19.5 34.9998 17.6 36.9998 14C38.9998 10.4 37.8332 8.16667 36.9998 7.5M7.49986 7C8.33319 7.66667 9.49986 9.9 7.49986 13.5C5.49986 17.1 7.33319 19 8.49986 19.5M3.49986 7C4.33319 7.66667 5.49986 9.9 3.49986 13.5C1.49986 17.1 3.33331 19 4.49998 19.5M29 25.5H37.9998M2 25.5H11.2686" stroke="black" stroke-width="2.4"/>
</svg>
