<svg width="40" height="40" viewBox="0 0 40 40" fill="none" xmlns="http://www.w3.org/2000/svg">
<g clip-path="url(#clip0_47_25)">
<circle cx="10.5" cy="10.5" r="3.5" stroke="black" stroke-width="2"/>
<path d="M2 31H5M5 31C4.33333 30.6667 3.2 29.7 4 28.5C4.8 27.3 7.66667 20.6667 9 17.5H13L16.5 26H24L28.5 37H25.5L21 31H13M5 31H7.5M7.5 31L10.5 27L13 31M7.5 31H13M27.5 1C26.5 1.66667 24.7 3.7 25.5 6.5C26.5 7.66667 27.9 10.6 25.5 13C25 13.6667 24.5 15.3 26.5 16.5C26.6667 16.6667 27 17.2 27 18M32.5 1.5C31.5 2.16667 29.7 4.7 30.5 7.5C31.5 8.66667 33.4 11.1 31 13.5C30.5 14.1667 31 15.8 33 17M38 2C37 2.66667 35.2 4.7 36 7.5C37 8.66667 38.9 11.1 36.5 13.5C36 14.1667 36 15.8 38 17" stroke="black" stroke-width="2.5"/>
</g>
<defs>
<clipPath id="clip0_47_25">
<rect width="40" height="40" fill="white"/>
</clipPath>
</defs>
</svg>
