<svg width="40" height="40" viewBox="0 0 40 40" fill="none" xmlns="http://www.w3.org/2000/svg">
<g clip-path="url(#clip0_1_174)">
<path d="M35.8311 31.8397H4.72188C3.28362 31.8397 2.11768 33.0057 2.11768 34.4439C2.11768 35.8822 3.28362 37.0481 4.72188 37.0481H35.8311C37.2693 37.0481 38.4353 35.8822 38.4353 34.4439C38.4353 33.0057 37.2693 31.8397 35.8311 31.8397Z" stroke="black" stroke-width="2.5" stroke-miterlimit="10"/>
<path d="M3.78597 31.8397C3.78597 31.8397 -1.08775 28.4354 3.78597 25.4286H10.3278" stroke="black" stroke-width="2.5" stroke-miterlimit="10"/>
<path d="M3.78585 25.4286C3.78585 25.4286 -2.01869 21.9877 3.78585 17.7311" stroke="black" stroke-width="2.5" stroke-miterlimit="10"/>
<path d="M36.4169 31.8397C36.4169 31.8397 41.2906 28.4354 36.4169 25.4286H29.875" stroke="black" stroke-width="2.5" stroke-miterlimit="10"/>
<path d="M36.4167 25.4286C36.4167 25.4286 42.2265 21.9877 36.4167 17.7311" stroke="black" stroke-width="2.5" stroke-miterlimit="10"/>
<path d="M1.20776 17.7363H39V12.6115L20.7759 4.53223L1.20776 13.1449V17.7363Z" stroke="black" stroke-width="2.5" stroke-miterlimit="10"/>
<path d="M14.6052 17.7311V31.5731" stroke="black" stroke-width="2.5" stroke-miterlimit="10"/>
<path d="M25.6863 17.7311V31.5731" stroke="black" stroke-width="2.5" stroke-miterlimit="10"/>
<path d="M20.2139 23.5101C21.8297 23.5101 21.8349 21 20.2139 21C18.5928 21 18.598 23.5101 20.2139 23.5101Z" fill="black"/>
</g>
<defs>
<clipPath id="clip0_1_174">
<rect width="40" height="40" fill="white"/>
</clipPath>
</defs>
</svg>
